<svg xmlns="http://www.w3.org/2000/svg" viewBox="0 0 180 180" fill="none">
  <rect width="180" height="180" rx="40" fill="#1a1528"/>
  <path
    d="M90 36c-12.4 0-22.5 8.4-25.3 19.7-4.5-1.7-9.6-1.1-13.5 1.7-5.6 3.9-7.9 11.3-5.1 17.5 1.7 3.9 5.1 6.8 9 7.9-1.1 3.4-1.7 7.3-1.7 11.3 0 15.8 12.4 28.2 28.2 28.2 3.4 0 6.2-.6 9-.9 2.8 7.9 10.7 14.1 19.8 14.1 12.4 0 22.5-10.1 22.5-22.5 0-2.2-.6-4.5-1.1-6.8 7.3-2.8 12.4-10.1 12.4-18.6 0-6.8-3.4-13-8.5-16.4 1.7-5.6.6-11.9-3.4-16.4-4.5-5.1-11.9-6.8-18.1-4.5C112.5 45 101.3 36 90 36Z"
    fill="#a78bfa"
    opacity=".95"
  />
  <path
    d="M62 104c-3.4 0-5.6 2.2-5.6 5.6v25.3c0 3.4 2.2 5.6 5.6 5.6h5.6l7.3 12.4c1.1 1.7 2.8 1.7 3.9 0l7.3-12.4h5.6c3.4 0 5.6-2.2 5.6-5.6v-25.3c0-3.4-2.2-5.6-5.6-5.6H62Z"
    fill="#c4b5fd"
  />
  <circle cx="73" cy="121" r="4.5" fill="#1a1528"/>
  <circle cx="90" cy="121" r="4.5" fill="#1a1528"/>
  <circle cx="107" cy="121" r="4.5" fill="#1a1528"/>
</svg>
