<svg xmlns="http://www.w3.org/2000/svg" viewBox="0 0 32 32" fill="none">
  <rect width="32" height="32" rx="8" fill="#1a1528"/>
  <path
    d="M16 6.5c-2.2 0-4 1.5-4.5 3.5-.8-.3-1.7-.2-2.4.3-1 .7-1.4 2-.9 3.1.3.7.9 1.2 1.6 1.4-.2.6-.3 1.3-.3 2 0 2.8 2.2 5 5 5 .6 0 1.1-.1 1.6-.3.5 1.4 1.9 2.5 3.5 2.5 2.2 0 4-1.8 4-4 0-.4-.1-.8-.2-1.2 1.3-.5 2.2-1.8 2.2-3.3 0-1.2-.6-2.3-1.6-2.9.3-1 .1-2.1-.6-2.9-.8-.9-2.1-1.2-3.2-.8C20 8 18.2 6.5 16 6.5Z"
    fill="#a78bfa"
    opacity=".95"
  />
  <path
    d="M11 18.5c-.6 0-1 .4-1 1v4.5c0 .6.4 1 1 1h1.2l1.3 2.2c.2.3.5.3.7 0l1.3-2.2H18c.6 0 1-.4 1-1v-4.5c0-.6-.4-1-1-1h-7Z"
    fill="#c4b5fd"
  />
  <circle cx="13" cy="21.5" r=".8" fill="#1a1528"/>
  <circle cx="16" cy="21.5" r=".8" fill="#1a1528"/>
  <circle cx="19" cy="21.5" r=".8" fill="#1a1528"/>
</svg>
